<?xml version="1.0" encoding="UTF-8"?>
<!--Generator: Apple Native CoreSVG 326-->
<!DOCTYPE svg
PUBLIC "-//W3C//DTD SVG 1.1//EN"
       "http://www.w3.org/Graphics/SVG/1.1/DTD/svg11.dtd">
<svg version="1.1" xmlns="http://www.w3.org/2000/svg" xmlns:xlink="http://www.w3.org/1999/xlink" viewBox="0 0 76.5527 76.377">
 <g>
  <rect height="76.377" opacity="0" width="76.5527" x="0" y="0"/>
  <path d="M38.1445 76.377C59.1797 76.377 76.3184 59.2383 76.3184 38.2031C76.3184 17.1973 59.1797 0.0585938 38.1445 0.0585938C17.1387 0.0585938 0 17.1973 0 38.2031C0 59.2383 17.1387 76.377 38.1445 76.377Z" fill="#007aff"/>
  <path d="M21.123 18.8965L57.4805 55.2539C58.0957 55.8691 58.0957 56.8359 57.4805 57.5098C56.8652 58.125 55.8105 58.125 55.2246 57.5098L18.8379 21.1523C18.252 20.5664 18.2227 19.541 18.8379 18.8965C19.5117 18.252 20.5078 18.252 21.123 18.8965ZM46.6316 52.5788C45.6347 53.297 44.3122 53.6719 42.7148 53.6719L22.2656 53.6719C18.3984 53.6719 16.1133 51.4746 16.1133 47.6074L16.1133 28.8281C16.1133 26.7056 16.8369 25.0862 18.1136 24.0608ZM62.7832 28.3301L62.7832 48.1055C62.7832 49.6582 61.8457 50.6543 60.4395 50.6543C59.7656 50.6543 59.0332 50.332 58.3594 49.7461L50.9766 43.5352L50.9766 32.9004L58.3594 26.6602C58.9746 26.1328 59.7656 25.7812 60.4395 25.7812C61.8457 25.7812 62.7832 26.7773 62.7832 28.3301ZM48.8379 28.8281L48.8379 42.9701L28.6478 22.7637L42.8613 22.7637C46.7578 22.7637 48.8379 24.9609 48.8379 28.8281Z" fill="white" fill-opacity="0.85"/>
 </g>
</svg>
